<?xml version="1.0" encoding="UTF-8" standalone="no"?>
<!-- Uploaded to: SVG Repo, www.svgrepo.com, Generator: SVG Repo Mixer Tools -->

<svg
   width="16"
   height="16"
   viewBox="0 0 3.84 3.84"
   xml:space="preserve"
   version="1.1"
   id="svg4212"
   sodipodi:docname="google-task-mate-svgrepo-com.svg"
   inkscape:version="1.2.2 (732a01da63, 2022-12-09)"
   xmlns:inkscape="http://www.inkscape.org/namespaces/inkscape"
   xmlns:sodipodi="http://sodipodi.sourceforge.net/DTD/sodipodi-0.dtd"
   xmlns="http://www.w3.org/2000/svg"
   xmlns:svg="http://www.w3.org/2000/svg"><defs
     id="defs4216" /><sodipodi:namedview
     id="namedview4214"
     pagecolor="#ffffff"
     bordercolor="#000000"
     borderopacity="0.25"
     inkscape:showpageshadow="2"
     inkscape:pageopacity="0.0"
     inkscape:pagecheckerboard="0"
     inkscape:deskcolor="#d1d1d1"
     showgrid="true"
     inkscape:zoom="32.32"
     inkscape:cx="12.051361"
     inkscape:cy="5.5538366"
     inkscape:window-width="1920"
     inkscape:window-height="991"
     inkscape:window-x="-9"
     inkscape:window-y="-9"
     inkscape:window-maximized="1"
     inkscape:current-layer="svg4212"><inkscape:grid
       type="xygrid"
       id="grid4218" /></sodipodi:namedview><path
     d="m 0.64276472,2.6910188 1.14487908,-0.00925 c 0.025184,0 0.045802,0.020828 0.045802,0.046286 v 0.055541 c 0.00229,0.2429892 -0.19234,0.4420141 -0.4327644,0.4420141 l -0.7350127,0.00695 C 0.51453991,3.2348928 0.39089349,3.1099099 0.38860338,2.9571697 v -0.00463 c 0,-0.1434819 0.11219829,-0.2591954 0.25416327,-0.2615093 z m -0.22210669,-1.77502515 -0.004505,0.00231 C 0.27189967,0.96690649 0.19404862,1.1242747 0.24213312,1.2700721 L 0.47568837,1.978231 C 0.5512509,2.2096554 0.7985443,2.3323106 1.0252302,2.2559404 l 0.052672,-0.018515 c 0.0229,-0.00694 0.036641,-0.034714 0.02977,-0.057856 L 0.74351396,1.0803048 C 0.70000868,0.94376447 0.55346407,0.87202286 0.42065803,0.91599365 Z M 2.3463452,0.3166043 2.3440531,0.31197727 C 2.2547543,0.18932073 2.0830224,0.1615499 1.9593759,0.25411963 L 1.3640386,0.69845446 C 1.1716985,0.84193777 1.1304832,1.1173327 1.2724541,1.3140436 l 0.032054,0.043971 c 0.016033,0.020828 0.043509,0.025456 0.064117,0.00925 L 2.2913976,0.67993739 C 2.4058855,0.5943103 2.4287827,0.43231325 2.3463523,0.31660099 Z m 1.1586167,1.6662559 0.00229,-0.00463 C 3.5965634,1.853266 3.5667929,1.6796978 3.4431551,1.5917566 L 2.8432514,1.1589931 C 2.6486223,1.0178243 2.3761411,1.0641093 2.2364656,1.2608195 l -0.032054,0.043971 c -0.013737,0.020829 -0.00911,0.0486 0.011445,0.064798 l 0.9319324,0.6734455 c 0.1144878,0.083313 0.2747716,0.055543 0.3572016,-0.06017 z m -1.2089914,1.6292289 0.0045,0.00232 c 0.1442558,0.046288 0.29996,-0.034712 0.3457542,-0.1805094 L 2.8683813,2.7234235 C 2.941654,2.4919997 2.8134316,2.2443754 2.5844513,2.172634 L 2.5317898,2.156436 c -0.025184,-0.00694 -0.050368,0.00694 -0.057247,0.030086 L 2.1287884,3.2904148 c -0.043509,0.1319115 0.032055,0.277709 0.1671518,0.3216799 z"
     style="fill:none;stroke:#000000;stroke-width:0.276236;stroke-miterlimit:10"
     id="path4210" /></svg>
