<?xml version="1.0" encoding="UTF-8" standalone="no"?>
<!-- Created with Inkscape (http://www.inkscape.org/) -->

<svg
   width="100mm"
   height="100mm"
   viewBox="0 0 100 100"
   version="1.1"
   id="svg1"
   inkscape:version="1.3 (0e150ed, 2023-07-21)"
   sodipodi:docname="prompt-ide.svg"
   xmlns:inkscape="http://www.inkscape.org/namespaces/inkscape"
   xmlns:sodipodi="http://sodipodi.sourceforge.net/DTD/sodipodi-0.dtd"
   xmlns="http://www.w3.org/2000/svg"
   xmlns:svg="http://www.w3.org/2000/svg">
  <sodipodi:namedview
     id="namedview1"
     pagecolor="#ffffff"
     bordercolor="#000000"
     borderopacity="0.25"
     inkscape:showpageshadow="2"
     inkscape:pageopacity="0.0"
     inkscape:pagecheckerboard="0"
     inkscape:deskcolor="#d1d1d1"
     inkscape:document-units="mm"
     showguides="true"
     inkscape:zoom="0.77314395"
     inkscape:cx="261.91759"
     inkscape:cy="146.80319"
     inkscape:window-width="1328"
     inkscape:window-height="648"
     inkscape:window-x="165"
     inkscape:window-y="25"
     inkscape:window-maximized="0"
     inkscape:current-layer="layer1" />
  <defs
     id="defs1" />
  <g
     inkscape:label="图层 1"
     inkscape:groupmode="layer"
     id="layer1"
     transform="translate(-65.35208,-108.21458)">
    <path
       d="m 132.13568,143.07567 c -1.77341,0.0303 -3.62761,0.32809 -5.55801,0.86537 1.13524,2.7312 1.92687,5.57389 2.29482,8.57179 1.56845,0.46073 3.01519,0.99625 4.34904,1.60338 2.01471,-6.41209 2.27648,-13.52445 1.69968,-21.15997 1.41993,0.34078 2.81305,0.75283 4.17478,1.23367 -0.56798,-3.74368 -1.47673,-7.59707 -2.72415,-11.56582 -6.36341,-0.67028 -12.42907,0.15557 -18.10774,2.28282 6.1648,5.42466 10.77525,11.4748 13.87158,18.16876"
       style="fill:#f04624;fill-opacity:1;fill-rule:nonzero;stroke:none;stroke-width:0.0352778"
       id="path672" />
    <path
       d="m 138.0373,157.02874 c -1.37866,-1.11866 -2.9912,-2.08315 -4.81577,-2.91253 -0.88406,2.8194 -2.10573,5.5058 -3.74932,8.03804 0.90487,1.35961 1.66687,2.69981 2.29976,4.02308 5.66596,-3.61633 10.43834,-8.89741 14.9038,-15.11759 0.86889,1.1744 1.6697,2.38478 2.40524,3.62867 1.97026,-3.23356 3.75285,-6.76804 5.3467,-10.61155 -4.44324,-4.60128 -9.61672,-7.8673 -15.33172,-9.88695 1.23437,8.11918 0.87489,15.71907 -1.05869,22.83883"
       style="fill:#672590;fill-opacity:1;fill-rule:nonzero;stroke:none;stroke-width:0.0352778"
       id="path674" />
    <path
       d="m 133.59018,171.50498 c -0.3369,-1.74378 -0.95214,-3.52002 -1.81821,-5.32765 -2.48991,1.59138 -5.15126,2.86349 -8.03946,3.74791 -0.17956,1.62348 -0.45649,3.14043 -0.82267,4.56106 6.66503,0.86925 13.71423,-0.10759 21.1335,-2.00307 -0.0882,1.45838 -0.25294,2.90195 -0.49071,4.32612 3.58951,-1.21074 7.22736,-2.77284 10.91812,-4.69266 -0.44556,-6.37928 -2.31211,-12.20822 -5.38974,-17.42828 -4.27426,7.01252 -9.43469,12.60369 -15.49083,16.81657"
       style="fill:#432a7b;fill-opacity:1;fill-rule:nonzero;stroke:none;stroke-width:0.0352778"
       id="path676" />
    <path
       d="m 143.55263,176.80935 c -7.78087,2.62466 -15.3289,3.59163 -22.67409,2.92523 0.86254,-1.55293 1.53353,-3.308 2.0313,-5.24828 -2.92982,-0.38206 -5.78627,-1.1183 -8.56827,-2.29764 -1.1804,1.12748 -2.36855,2.11314 -3.56094,2.96545 4.5466,4.95124 10.57451,8.7316 17.47696,12.04983 -1.00682,1.06151 -2.05881,2.05988 -3.15771,2.99862 3.52848,1.37971 7.31979,2.52024 11.38026,3.423 3.76026,-5.17419 6.07695,-10.83733 7.07249,-16.81621"
       style="fill:#ec127b;fill-opacity:1;fill-rule:nonzero;stroke:none;stroke-width:0.0352778"
       id="path678" />
    <path
       d="m 110.78063,175.15411 c -1.99919,-2.17664 -3.71546,-4.57588 -5.08706,-7.26687 -1.63124,0.10478 -3.17288,0.0949 -4.63444,-0.018 0.29951,6.71477 2.48814,13.4867 5.64339,20.46535 -1.45098,0.1658 -2.90054,0.25541 -4.34622,0.26846 1.81751,3.32282 3.98533,6.63399 6.51827,9.9367 6.20572,-1.54835 11.62121,-4.39667 16.22531,-8.3372 -7.64611,-2.99015 -14.04938,-7.0993 -19.24791,-12.33347 1.65735,-0.635 3.29918,-1.5494 4.92866,-2.71498"
       style="fill:#da125b;fill-opacity:1;fill-rule:nonzero;stroke:none;stroke-width:0.0352778"
       id="path680" />
    <path
       d="m 101.05913,167.86925 c -0.13229,-2.95275 0.0952,-5.89386 0.77364,-8.83638 -1.31621,-0.96767 -2.491312,-1.96603 -3.538362,-2.99297 -4.08517,5.33718 -6.76345,11.9313 -8.83108,19.30542 -1.21885,-0.80575 -2.38549,-1.67005 -3.50238,-2.58798 -0.74331,3.71263 -1.21003,7.64364 -1.39312,11.79971 5.74886,2.80564 11.72915,4.10316 17.788472,4.04601 -3.935592,-7.20796 -6.197962,-14.4713 -6.819552,-21.82178 1.67887,0.5775 3.5239,0.9331 5.522382,1.08797"
       style="fill:#59c034;fill-opacity:1;fill-rule:nonzero;stroke:none;stroke-width:0.0352778"
       id="path682" />
    <path
       d="m 98.294408,156.0399 c 1.795642,-2.34667 3.860802,-4.45311 6.272042,-6.27097 -0.38665,-1.58786 -0.64417,-3.10868 -0.7874,-4.56848 -6.559552,1.46262 -12.849232,4.7939 -19.172422,9.11225 -0.41557,-1.40017 -0.75494,-2.81164 -1.02058,-4.23227 -2.95734,2.36537 -5.83953,5.07788 -8.65188,8.14388 2.60174,5.84341 6.34824,10.68246 11.02678,14.53303 1.61854,-8.05145 4.55259,-15.07067 8.80216,-21.09999 0.9151,1.52223 2.10043,2.98026 3.5313,4.38255"
       style="fill:#3d9c3b;fill-opacity:1;fill-rule:nonzero;stroke:none;stroke-width:0.0352778"
       id="path684" />
    <path
       d="m 103.77905,145.20045 c 2.88466,-0.64346 5.82118,-0.92921 8.83814,-0.77258 0.72425,-1.46403 1.50178,-2.79506 2.3308,-4.00509 -5.96512,-3.09703 -12.92401,-4.58717 -20.545072,-5.34246 0.58279,-1.34021 1.22978,-2.63984 1.94063,-3.89855 -3.78636,-0.0886 -7.73889,0.13617 -11.86356,0.67663 -1.76389,6.14891 -2.00237,12.26396 -0.89394,18.22203 6.4135,-5.12868 13.17519,-8.61907 20.305182,-10.50608 -0.27728,1.75296 -0.30727,3.6315 -0.11218,5.6261"
       style="fill:#f8a620;fill-opacity:1;fill-rule:nonzero;stroke:none;stroke-width:0.0352778"
       id="path686" />
    <path
       d="m 114.94799,140.42278 c 2.62502,1.36137 5.05601,3.02931 7.26617,5.08741 1.49613,-0.65581 2.94957,-1.17545 4.36351,-1.56915 -2.5781,-6.20536 -6.95008,-11.82053 -12.29784,-17.29846 1.30669,-0.65088 2.63419,-1.22943 3.98427,-1.73567 -2.84338,-2.50225 -6.01486,-4.87292 -9.52394,-7.11024 -5.3026,3.57717 -9.417052,8.10754 -12.396612,13.3851 8.209492,0.19438 15.631942,1.86478 22.308262,5.00309 -1.33985,1.16417 -2.57034,2.58481 -3.70382,4.23792"
       style="fill:#f58614;fill-opacity:1;fill-rule:nonzero;stroke:none;stroke-width:0.0352778"
       id="path688" />
    <path
       d="m 133.22153,154.11621 c 1.82457,0.82938 3.43711,1.79387 4.81577,2.91253 1.93358,-7.11976 2.29306,-14.71965 1.05869,-22.83883 -1.36173,-0.48084 -2.75485,-0.89289 -4.17478,-1.23367 0.5768,7.63553 0.31503,14.74788 -1.69968,21.15997"
       style="fill:#5f1f64;fill-opacity:1;fill-rule:nonzero;stroke:none;stroke-width:0.0352778"
       id="path690" />
    <path
       d="m 131.77197,166.17733 c 0.86607,1.80763 1.48131,3.58387 1.81821,5.32765 6.05614,-4.21288 11.21657,-9.80405 15.49083,-16.81657 -0.73554,-1.24389 -1.53635,-2.45427 -2.40524,-3.62867 -4.46546,6.22018 -9.23784,11.50126 -14.9038,15.11759"
       style="fill:#2a2c6d;fill-opacity:1;fill-rule:nonzero;stroke:none;stroke-width:0.0352778"
       id="path692" />
    <path
       d="m 122.90984,174.4863 c -0.49777,1.94028 -1.16876,3.69535 -2.0313,5.24828 7.34519,0.6664 14.89322,-0.30057 22.67409,-2.92523 0.23777,-1.42417 0.40252,-2.86774 0.49071,-4.32612 -7.41927,1.89548 -14.46847,2.87232 -21.1335,2.00307"
       style="fill:#a31b63;fill-opacity:1;fill-rule:nonzero;stroke:none;stroke-width:0.0352778"
       id="path694" />
    <path
       d="m 128.25759,187.20394 c -6.90245,-3.31823 -12.93036,-7.09859 -17.47696,-12.04983 -1.62948,1.16558 -3.27131,2.07998 -4.92866,2.71498 5.19853,5.23416 11.6018,9.34331 19.24791,12.33346 1.0989,-0.93874 2.15089,-1.9371 3.15771,-2.99861"
       style="fill:#ad1742;fill-opacity:1;fill-rule:nonzero;stroke:none;stroke-width:0.0352778"
       id="path696" />
    <path
       d="m 106.70252,188.33459 c -3.15525,-6.97865 -5.34388,-13.75057 -5.64339,-20.46534 -1.998482,-0.15487 -3.843512,-0.51047 -5.522382,-1.08797 0.62159,7.35048 2.88396,14.61382 6.819552,21.82177 1.44568,-0.0131 2.89524,-0.10265 4.34622,-0.26846"
       style="fill:#c21559;fill-opacity:1;fill-rule:nonzero;stroke:none;stroke-width:0.0352778"
       id="path698" />
    <path
       d="m 98.294408,156.0399 c -1.43087,-1.40229 -2.6162,-2.86032 -3.5313,-4.38255 -4.24957,6.02932 -7.18362,13.04854 -8.80216,21.09999 1.11689,0.91793 2.28353,1.78223 3.50238,2.58798 2.06763,-7.37412 4.74591,-13.96824 8.83108,-19.30542"
       style="fill:#288f3f;fill-opacity:1;fill-rule:nonzero;stroke:none;stroke-width:0.0352778"
       id="path700" />
    <path
       d="m 103.77905,145.20045 c -0.19509,-1.9946 -0.1651,-3.87314 0.11218,-5.6261 -7.129992,1.88701 -13.891682,5.3774 -20.305182,10.50608 0.26564,1.42063 0.60501,2.8321 1.02058,4.23227 6.32319,-4.31835 12.61287,-7.64963 19.172422,-9.11225"
       style="fill:#e97c16;fill-opacity:1;fill-rule:nonzero;stroke:none;stroke-width:0.0352778"
       id="path702" />
    <path
       d="m 126.57767,143.94104 c 1.9304,-0.53728 3.7846,-0.83503 5.55801,-0.86537 -3.09633,-6.69396 -7.70678,-12.7441 -13.87158,-18.16876 -1.35008,0.50624 -2.67758,1.08479 -3.98427,1.73567 5.34776,5.47793 9.71974,11.0931 12.29784,17.29846"
       style="fill:#ee3220;fill-opacity:1;fill-rule:nonzero;stroke:none;stroke-width:0.0352778"
       id="path704" />
    <path
       d="m 114.94799,140.42278 c 1.13348,-1.65311 2.36397,-3.07375 3.70382,-4.23792 -6.67632,-3.13831 -14.09877,-4.80871 -22.308262,-5.00309 -0.71085,1.25871 -1.35784,2.55834 -1.94063,3.89855 7.621062,0.75529 14.579952,2.24543 20.545072,5.34246"
       style="fill:#f2671d;fill-opacity:1;fill-rule:nonzero;stroke:none;stroke-width:0.0352778"
       id="path706" />
  </g>
</svg>
